# xmcd
#
# Track frame offsets:
#	150
#	13940
#	28097
#	42500
#	56880
#	69975
#	83915
#	97055
#	110835
#	123842
#	137615
#	151522
#	166237
#	179400
#	193327
#	207237
#	221215
#	234437
#	249245
#	262902
#
# Disc length: 3681 seconds
#
# Revision: 0
# Processed by: cddbd v1.5.1PL2 Copyright (c) Steve Scherf et al.
# Submitted via: audiograbber 1.83.01
#
DISCID=1f0e5f14
DTITLE=Bix Beiderbecke - Singin' The Blues
DYEAR=1900
DGENRE=Blues
TTITLE0=Singin' The Blues
TTITLE1=Ostrich Walk
TTITLE2=Riverboat Shuffle
TTITLE3=I'm Coming Virginia
TTITLE4=Way Down Yonder In New Orleans
TTITLE5=For No Reason At All In C
TTITLE6=Wringin' And Twistin'
TTITLE7=Three Blind Mice
TTITLE8=At The Jazz Band Ball
TTITLE9=Royal Garden Blues
TTITLE10=Jazz Me Blues
TTITLE11=Goose Pimples
TTITLE12=Sorry
TTITLE13=Cryin' All day
TTITLE14=A Good Man Is Hard To Find
TTITLE15=Since My best Gal Turned Me Down
TTITLE16=There'll Come A Time (Wait And See)
TTITLE17=Jubilee
TTITLE18=Our Bungalow Of Dreams
TTITLE19=Lila
EXTD=
EXTT0=
EXTT1=
EXTT2=
EXTT3=
EXTT4=
EXTT5=
EXTT6=
EXTT7=
EXTT8=
EXTT9=
EXTT10=
EXTT11=
EXTT12=
EXTT13=
EXTT14=
EXTT15=
EXTT16=
EXTT17=
EXTT18=
EXTT19=
PLAYORDER=
